<?xml version="1.0" encoding="utf-8"?>
<!-- Generator: Adobe Illustrator 15.0.0, SVG Export Plug-In . SVG Version: 6.00 Build 0)  -->
<!DOCTYPE svg PUBLIC "-//W3C//DTD SVG 1.1//EN" "http://www.w3.org/Graphics/SVG/1.1/DTD/svg11.dtd">
<svg version="1.1" xmlns="http://www.w3.org/2000/svg" xmlns:xlink="http://www.w3.org/1999/xlink" x="0px" y="0px"
	 width="352.737px" height="570px" viewBox="0 0 352.737 570" enable-background="new 0 0 352.737 570" xml:space="preserve">
<g id="Background">
</g>
<g id="Beard">
	<path fill="#412200" d="M203.221,241.64c2.549,22.868-4.211,46.085-1.606,72.076c-11.17-4.221-19.839-6.804-28.817-14.419
		c-15.246-12.902-6.065-48.039-22.436-62.464c-1.122-0.987-5.083-4.963-10.917-8.344c-6.689-3.878-15.414-7.173-17.898-7.666
		c-14.266-2.841-33.878,1.462-51.265,3.202c-16.85,1.699-35.442,6.192-49.635,3.207c-8.477-1.789-14.166-3.29-20.647-8.593v-59.555
		c13.468-5.805,57.29-7.401,69.279-7.511c5.981,0,38.256-0.262,66.125,10.625c12.593,4.919,27.956,13.686,38.562,22.688
		c4.978,4.225,11.788,12.417,16.896,21.896C197.766,219.59,202.412,234.399,203.221,241.64z"/>
	<path fill="#412200" d="M0,410.418v159.638c0,0,0,0,16.953,0s49.445-8.478,93.241-29.668L29.667,414.655
		C19.781,416.774,0,410.418,0,410.418z"/>
	<path fill="#412200" d="M179.239,355.408l41.144,88.915c31.644-44.304,57.901-95.803,77.702-128.56
		c19.799-32.757,7.063-0.705,22.602-56.51c15.541-55.802,36.852-257.939,31.086-259.235c-5.767-1.297-26.14,64.985-33.912,115.137
		c-7.77,50.152-10.595,78.407-16.953,86.178c-6.357,7.769-18.708,10.694-29.667,16.952c-10.948,6.259-21.191,28.255-21.191,28.255
		s-11.688,20.893-22.913,40.968c-11.224,20.077-36.422,62.161-36.422,62.161"/>
</g>
<g id="Patch_1_">
	<path opacity="0.98" fill="#FFFFFF" d="M134.598,377.73c-4.067,1.138-21.285,1.844-24.405,3.02c0,0-28.029,14.585-36.083,18.779
		c-8.054,4.194-44.443,15.126-44.443,15.126l80.527,125.732c43.795-21.19,51.578-21.173,67.811-36.73s10.736-15.031,42.378-59.334
		l-41.144-88.915L134.598,377.73z"/>
</g>
</svg>
