<?xml version="1.0" encoding="utf-8"?>
<!-- Generator: Adobe Illustrator 15.0.0, SVG Export Plug-In . SVG Version: 6.00 Build 0)  -->
<!DOCTYPE svg PUBLIC "-//W3C//DTD SVG 1.1//EN" "http://www.w3.org/Graphics/SVG/1.1/DTD/svg11.dtd">
<svg version="1.1" id="Layer_1" xmlns="http://www.w3.org/2000/svg" xmlns:xlink="http://www.w3.org/1999/xlink" x="0px" y="0px"
	 width="367px" height="199px" viewBox="-13.632 196 367 199" enable-background="new -13.632 196 367 199" xml:space="preserve">
<g id="Background">
</g>
<path fill="#5BB0D1" d="M259.487,280.553l20.572,44.457c15.822-22.152,28.951-47.9,38.852-64.279s3.531-0.354,11.301-28.256
	c7.771-27.901,18.426-128.969,15.543-129.617s-13.07,32.492-16.955,57.568s-5.299,39.203-8.477,43.089s-9.354,5.347-14.834,8.476
	c-5.473,3.13-10.594,14.128-10.594,14.128s-5.846,10.447-11.457,20.483c-5.613,10.039-18.211,31.082-18.211,31.082"/>
<g id="Patch_1_">
	<path opacity="0.98" fill="#E8F9FF" enable-background="new    " d="M237.167,291.714c-2.033,0.568-10.643,0.922-12.201,1.51
		c0,0-14.016,7.293-18.043,9.391s-22.221,7.562-22.221,7.562l40.264,62.867c21.896-10.596,25.789-10.588,33.906-18.367
		c8.115-7.777,5.367-7.514,21.188-29.666l-20.572-44.457L237.167,291.714z"/>
</g>
<path fill="#5BB0D1" d="M271.479,224.086c-0.404-3.62-2.729-11.025-6.18-17.43c-2.555-4.74-5.959-8.836-8.447-10.948
	c-5.305-4.501-12.984-8.885-19.281-11.344c-13.934-5.443-30.072-5.312-33.062-5.312c-5.994,0.056-27.906,0.853-34.641,3.755v-0.014
	c-6.734-2.902-28.645-3.7-34.639-3.756c-2.99,0-19.129-0.131-33.062,5.312c-6.297,2.46-13.979,6.843-19.281,11.344
	c-2.488,2.113-5.894,6.209-8.447,10.948c-3.453,6.405-5.775,13.81-6.18,17.431c-1.275,11.433,2.105,23.042,0.803,36.038
	c5.585-2.111,9.92-3.402,14.408-7.211c7.623-6.449,3.032-24.02,11.219-31.231c0.561-0.493,2.541-2.481,5.458-4.172
	c3.345-1.939,7.707-3.587,8.948-3.833c7.134-1.421,16.939,0.73,25.633,1.601c8.426,0.85,17.721,3.096,24.818,1.604
	c4.238-0.895,7.082-1.645,10.322-4.296v0.014c3.242,2.651,6.086,3.402,10.324,4.297c7.098,1.491,16.393-0.754,24.816-1.604
	c8.695-0.87,18.5-3.021,25.633-1.602c1.242,0.247,5.605,1.895,8.949,3.833c2.918,1.69,4.898,3.68,5.459,4.172
	c8.186,7.213,3.596,24.782,11.219,31.233c4.488,3.807,8.822,5.098,14.408,7.209C269.374,247.13,272.755,235.519,271.479,224.086z"/>
<path opacity="0.98" fill="#5BB0D1" enable-background="new    " d="M114.974,373.045c21.897,10.594,38.144,14.834,46.619,14.834
	c8.176,0,8.467,0,8.477,0v0.014c0,0,0,0,8.477,0s24.723-4.24,46.621-14.834l-40.264-62.867c-4.941,1.059-14.822-2.113-14.834-2.117
	v-0.016c0,0-9.891,3.178-14.833,2.119l-0.001-0.001c0,0-18.193-5.467-22.221-7.564c-4.027-2.096-18.041-9.389-18.041-9.389
	c-1.561-0.588-10.17-0.941-12.203-1.51l-22.32-11.16l-5.738-2.869c0,0-12.6-21.043-18.212-31.082
	c-5.612-10.037-11.456-20.484-11.456-20.484s-5.121-10.998-10.596-14.127c-5.479-3.129-11.655-4.591-14.834-8.477
	c-3.178-3.885-4.59-18.012-8.476-43.088C7.254,135.349-2.933,102.21-5.817,102.858c-2.883,0.647,7.772,101.715,15.543,129.616
	c7.77,27.903,1.401,11.876,11.301,28.255c9.9,16.379,23.029,42.129,38.852,64.281c15.82,22.152,13.072,21.889,21.189,29.666
	c8.116,7.779,12.008,7.771,33.905,18.365L114.974,373.045z"/>
</svg>
