<?xml version="1.0" encoding="utf-8"?>
<!-- Generator: Adobe Illustrator 15.0.0, SVG Export Plug-In . SVG Version: 6.00 Build 0)  -->
<!DOCTYPE svg PUBLIC "-//W3C//DTD SVG 1.1//EN" "http://www.w3.org/Graphics/SVG/1.1/DTD/svg11.dtd">
<svg version="1.1" id="Layer_1" xmlns="http://www.w3.org/2000/svg" xmlns:xlink="http://www.w3.org/1999/xlink" x="0px" y="0px"
	 width="100px" height="100px" viewBox="-16.5 -16.5 100 100" enable-background="new -16.5 -16.5 100 100" xml:space="preserve">
<path fill="#333333" d="M12.738,34.447c-0.09,0,0.986,2.278,1.017,2.278c2.35,4.193,6.88,6.801,14.521,7.523
	c-1.09,0.813-2.399,2.356-2.582,4.141c-1.371,0.87-4.129,1.158-6.273,0.494c-3.006-0.933-4.155-6.777-8.654-5.943
	c-0.973,0.179-0.78,0.811,0.062,1.348c1.372,0.872,2.661,1.963,3.656,4.285c0.766,1.782,2.372,4.969,7.455,4.969
	c2.017,0,3.43-0.239,3.43-0.239s0.039,4.552,0.039,6.322c0,2.042-2.804,2.617-2.804,3.6c0,0.387,0.929,0.424,1.674,0.424
	c1.473,0,4.538-1.209,4.538-3.33c0-1.685,0.028-7.348,0.028-8.343c0-2.166,1.182-2.853,1.182-2.853s0.146,11.565-0.282,13.12
	c-0.503,1.822-1.411,1.562-1.411,2.378c0,1.211,3.69,0.299,4.914-2.36c0.945-2.062,0.532-13.416,0.532-13.416l1.009-0.021
	c0,0,0.056,5.195,0.021,7.572c-0.034,2.459-0.204,5.569,1.284,7.035c0.977,0.967,4.139,2.658,4.139,1.11
	c0-0.897-1.733-1.636-1.733-4.067V49.281c1.385,0,1.177,3.679,1.177,3.679l0.103,6.839c0,0-0.308,2.49,2.741,3.532
	c1.074,0.371,3.375,0.472,3.482-0.149s-2.77-1.549-2.796-3.474c-0.017-1.179,0.052-1.864,0.052-6.979
	c0-5.114-0.696-7.004-3.131-8.509c7.513-0.759,12.164-2.587,14.429-7.478c0.177,0.003,0.926-2.285,0.826-2.285
	c0.51-1.847,0.783-4.032,0.838-6.619c-0.014-7.017-3.431-9.499-4.084-10.663c0.967-5.312-0.164-7.729-0.687-8.559
	c-1.937-0.676-6.735,1.742-9.358,3.446c-4.274-1.229-13.312-1.11-16.7,0.316c-6.251-4.398-9.559-3.726-9.559-3.726
	s-2.137,3.766-0.565,9.275c-2.056,2.578-3.59,4.4-3.59,9.232C11.676,29.883,12.003,32.319,12.738,34.447z M33.5,83.5
	c-27.613,0-50-22.387-50-50c0-27.615,22.387-50,50-50c27.613,0,50,22.385,50,50C83.5,61.113,61.113,83.5,33.5,83.5z"/>
</svg>
