<?xml version="1.0" encoding="utf-8"?>
<!-- Generator: Adobe Illustrator 15.0.0, SVG Export Plug-In . SVG Version: 6.00 Build 0)  -->
<!DOCTYPE svg PUBLIC "-//W3C//DTD SVG 1.1//EN" "http://www.w3.org/Graphics/SVG/1.1/DTD/svg11.dtd">
<svg version="1.1" id="Layer_1" xmlns="http://www.w3.org/2000/svg" xmlns:xlink="http://www.w3.org/1999/xlink" x="0px" y="0px"
	 width="100px" height="100px" viewBox="-21.654 -21.654 100 100" enable-background="new -21.654 -21.654 100 100"
	 xml:space="preserve">
<g>
	<path fill="#333333" d="M19.036,24.648c1.277,0,2.355-0.504,3.188-1.455c1.311-1.485,1.884-3.931,1.542-6.528
		c-0.61-4.644-3.922-8.501-7.385-8.602h-0.137c-1.228,0-2.318,0.5-3.151,1.452c-1.292,1.473-1.832,3.799-1.493,6.389
		c0.607,4.636,3.989,8.642,7.38,8.745L19.036,24.648L19.036,24.648z"/>
	<path fill="#333333" d="M22.814,38.634c-0.341-0.229-0.694-0.472-1.057-0.721c-1.067-0.33-2.201-0.5-3.359-0.516h-0.146
		c-5.33,0-10.008,3.231-10.008,6.916c0,4.002,4.003,7.143,9.119,7.143c6.745,0,10.165-2.324,10.165-6.912
		c0-0.437-0.051-0.885-0.154-1.331C26.917,41.427,25.281,40.313,22.814,38.634z"/>
	<path fill="#333333" d="M28.348-21.654c-27.619,0-50.002,22.383-50.002,49.998c0,27.614,22.385,50.001,50.002,50.001
		c27.61,0,49.998-22.389,49.998-50.001C78.346,0.73,55.958-21.654,28.348-21.654z M23.798,55.553
		c-1.995,0.572-4.145,0.867-6.404,0.867c-2.515,0-4.935-0.291-7.189-0.859c-4.364-1.1-7.595-3.188-9.095-5.878
		c-0.651-1.166-0.98-2.403-0.98-3.687c0-1.324,0.317-2.666,0.94-3.996c2.395-5.097,8.697-8.521,15.68-8.521c0.07,0,0.138,0,0.204,0
		c-0.568-1-0.845-2.035-0.845-3.121c0-0.545,0.071-1.095,0.212-1.654C8.998,28.533,3.516,23.171,3.516,16.1
		c0-4.997,3.989-9.857,9.698-11.824c1.709-0.591,3.448-0.893,5.164-0.893h15.661c0.536,0,1.005,0.345,1.171,0.853
		c0.17,0.512-0.019,1.067-0.45,1.38L31.258,8.15c-0.213,0.151-0.466,0.234-0.726,0.234H29.28c1.622,1.939,2.57,4.703,2.57,7.812
		c0,3.435-1.737,6.679-4.895,9.151c-2.438,1.9-2.538,2.417-2.538,3.51c0.034,0.599,1.735,2.543,3.605,3.866
		c4.368,3.092,5.996,6.12,5.996,11.185C34.019,49.177,30.005,53.75,23.798,55.553z M59.174,28.685c0,0.679-0.556,1.229-1.232,1.229
		h-8.898v8.903c0,0.683-0.55,1.231-1.231,1.231h-2.535c-0.682,0-1.232-0.549-1.232-1.231v-8.903h-8.906
		c-0.674,0-1.229-0.551-1.229-1.229v-2.538c0-0.678,0.556-1.233,1.229-1.233h8.904v-8.9c0-0.682,0.551-1.231,1.232-1.231h2.535
		c0.682,0,1.23,0.549,1.23,1.231v8.9h8.897c0.681,0,1.234,0.555,1.234,1.233v2.538H59.174z"/>
</g>
</svg>
