<?xml version="1.0" encoding="utf-8"?>
<!-- Generator: Adobe Illustrator 15.0.0, SVG Export Plug-In . SVG Version: 6.00 Build 0)  -->
<!DOCTYPE svg PUBLIC "-//W3C//DTD SVG 1.1//EN" "http://www.w3.org/Graphics/SVG/1.1/DTD/svg11.dtd">
<svg version="1.1" id="Layer_1" xmlns="http://www.w3.org/2000/svg" xmlns:xlink="http://www.w3.org/1999/xlink" x="0px" y="0px"
	 width="100px" height="100px" viewBox="0 0 100 100" enable-background="new 0 0 100 100" xml:space="preserve">
<path fill="#333333" d="M78.062,73.562V54.041c0-10.457-5.585-15.324-13.026-15.324c-6.007,0-8.699,3.304-10.197,5.622v-4.822H43.52
	c0.151,3.195,0,34.045,0,34.045h11.318V54.548c0-1.015,0.07-2.031,0.372-2.758c0.817-2.034,2.677-4.139,5.802-4.139
	c4.1,0,5.734,3.122,5.734,7.697v18.216h11.315V73.562z M31.598,34.87c3.945,0,6.403-2.616,6.403-5.884
	c-0.073-3.338-2.458-5.881-6.328-5.881c-3.87,0-6.401,2.541-6.401,5.881c0,3.268,2.457,5.884,6.255,5.884H31.598z M50,100
	C22.387,100,0,77.614,0,50C0,22.385,22.387,0,50,0s50,22.385,50,50C100,77.614,77.613,100,50,100z M37.257,73.562V39.517H25.941
	v34.045H37.257z"/>
</svg>
