<?xml version="1.0" encoding="utf-8"?>
<!-- Generator: Adobe Illustrator 15.0.0, SVG Export Plug-In . SVG Version: 6.00 Build 0)  -->
<!DOCTYPE svg PUBLIC "-//W3C//DTD SVG 1.1//EN" "http://www.w3.org/Graphics/SVG/1.1/DTD/svg11.dtd">
<svg version="1.1" id="Layer_1" xmlns="http://www.w3.org/2000/svg" xmlns:xlink="http://www.w3.org/1999/xlink" x="0px" y="0px"
	 width="100px" height="100px" viewBox="-16.417 -16.417 100 100" enable-background="new -16.417 -16.417 100 100"
	 xml:space="preserve">
<path fill="#333333" d="M40.528,14.055c-4.365,1.588-7.124,5.685-6.81,10.168l0.105,1.73l-1.747-0.211
	c-6.355-0.812-11.908-3.565-16.624-8.192l-2.306-2.295l-0.593,1.695c-1.256,3.779-0.453,7.769,2.166,10.452
	c1.396,1.483,1.082,1.695-1.326,0.811c-0.839-0.281-1.572-0.493-1.643-0.388c-0.243,0.248,0.593,3.46,1.257,4.731
	c0.909,1.766,2.759,3.495,4.785,4.52l1.712,0.812l-2.026,0.034c-1.955,0-2.024,0.035-1.815,0.777
	c0.698,2.295,3.457,4.732,6.53,5.793l2.165,0.74l-1.885,1.129c-2.793,1.628-6.077,2.543-9.359,2.614
	c-1.574,0.033-2.866,0.175-2.866,0.28c0,0.352,4.262,2.33,6.74,3.108c7.438,2.295,16.275,1.306,22.91-2.613
	c4.715-2.79,9.429-8.333,11.63-13.701c1.188-2.861,2.376-8.086,2.376-10.591c0-1.625,0.104-1.837,2.061-3.779
	c1.152-1.13,2.232-2.365,2.444-2.718c0.349-0.672,0.312-0.672-1.468-0.072c-2.969,1.059-3.389,0.918-1.921-0.67
	c1.085-1.13,2.376-3.179,2.376-3.778c0-0.105-0.523,0.07-1.117,0.388c-0.629,0.353-2.026,0.883-3.074,1.2l-1.886,0.602l-1.71-1.167
	c-0.944-0.635-2.269-1.341-2.969-1.554C44.859,13.419,42.135,13.489,40.528,14.055z M33.583,83.583c-27.613,0-50-22.386-50-50
	c0-27.615,22.387-50,50-50c27.614,0,50,22.385,50,50C83.583,61.197,61.197,83.583,33.583,83.583z"/>
</svg>
